<svg id="Layer_1" data-name="Layer 1" xmlns="http://www.w3.org/2000/svg" viewBox="0 0 1926.5 343.13"><defs><style>.cls-1{fill:#f2f2f2;}.cls-2{fill:#f8f9fa;}</style></defs><path class="cls-1" d="M1772.5,221.5c-336,72-486-92.85-705-92-259,1-209.59,99.22-556,92C196.24,214.93,22.72,25.25,2.5,1.86V344.5h1924v-203C1904,173.34,1858.32,203.11,1772.5,221.5Z" transform="translate(0 -1.37)"/><path class="cls-2" d="M1793.19,288.54c-336,72-486-92.84-705-92-259,1-209.59,99.22-556,92-336-7-501.69-234-501.69-234L0,1.37V344H1920V236.57C1893.44,257.32,1853.1,275.71,1793.19,288.54Z" transform="translate(0 -1.37)"/></svg>