<svg height="464pt" viewBox="0 -4 464 464" width="464pt" xmlns="http://www.w3.org/2000/svg"><path d="m8 0h448c4.417969 0 8 3.582031 8 8v304c0 4.417969-3.582031 8-8 8h-448c-4.417969 0-8-3.582031-8-8v-304c0-4.417969 3.582031-8 8-8zm0 0" fill="#ffeb99"/><path d="m464 78.800781v241.199219h-464v-19.679688c162.238281-18.082031 343.601562-101.679687 464-221.519531zm0 0" fill="#ffe38f"/><path d="m236.320312 399.824219 46.328126 55.199219 21.351562-49.222657 52.199219-12.472656-46.304688-55.199219c-.292969 1.382813-71.605469 61.582032-73.574219 61.695313zm0 0" fill="#ff7956"/><path d="m154.113281 338.144531-46.304687 55.199219 52.191406 12.457031 21.34375 49.230469 46.328125-55.199219c-3.671875.167969-75.671875-63.832031-73.558594-61.6875zm0 0" fill="#ff7956"/><path d="m312 320c0 44.183594-35.816406 80-80 80s-80-35.816406-80-80 35.816406-80 80-80 80 35.816406 80 80zm0 0" fill="#f7e06f"/><path d="m280 320c0 26.507812-21.492188 48-48 48s-48-21.492188-48-48 21.492188-48 48-48 48 21.492188 48 48zm0 0" fill="#fcca75"/><g fill="#ffb655"><path d="m40 40h24v-16h-32c-4.417969 0-8 3.582031-8 8v32h16zm0 0"/><path d="m424 64h16v-32c0-4.417969-3.582031-8-8-8h-32v16h24zm0 0"/><path d="m440 288v-32h-16v24h-24v16h32c4.417969 0 8-3.582031 8-8zm0 0"/><path d="m32 296h32v-16h-24v-24h-16v32c0 4.417969 3.582031 8 8 8zm0 0"/></g><path d="m136 80h192v16h-192zm0 0" fill="#5aaae7"/><path d="m88 128h288v16h-288zm0 0" fill="#5aaae7"/><path d="m232 376c30.929688 0 56-25.070312 56-56s-25.070312-56-56-56-56 25.070312-56 56c.035156 30.914062 25.085938 55.964844 56 56zm0-96c22.089844 0 40 17.910156 40 40s-17.910156 40-40 40-40-17.910156-40-40c.027344-22.082031 17.917969-39.972656 40-40zm0 0" fill="#ff7956"/></svg>